<?xml version="1.0" encoding="utf-8"?>
<!-- Generator: Adobe Illustrator 19.0.0, SVG Export Plug-In . SVG Version: 6.00 Build 0)  -->
<svg version="1.1" id="Layer_1" xmlns="http://www.w3.org/2000/svg" xmlns:xlink="http://www.w3.org/1999/xlink" x="0px" y="0px"
	 viewBox="0 0 500 500" style="enable-background:new 0 0 500 500;" xml:space="preserve">
<g id="_x23_000000ff">
	<path id="path5" d="M321,70c25.6,0,51.1,0,76.7,0c0,5.8,0,11.5,0,17.3c-6.5,0.3-13.1,1-19.1,3.7c-6.1,2.7-11.1,7.7-13.8,13.8
		c-31.1,73-62.1,146.1-93.2,219.1c-0.5,1.2-1,2.4-1.6,3.6c-11.1-0.1-22.2,0-33.3-0.1c-4.9-9.7-9.7-19.5-14.7-29.3
		c-5.7,15.2-11.4,30.4-17,45.6c36.7,0,73.3,0,110,0c6.7,0.1,13.6-0.2,19.9-2.8c10.4-4.2,18.7-12.3,25.5-21.1
		c8.2-10.6,14.4-22.6,19.9-34.8c6.2-0.1,12.4,0,18.6,0c-11.7,25.1-23.5,50.1-35.4,75.1c-84.5,0-169,0-253.4,0
		c2.1-5.4,4-10.8,6.2-16.1c0.1-0.5,0.8-0.4,1.2-0.5c10.5-0.1,21.2-0.5,31.5-2.7c5.4-1.3,11-2.9,15.1-6.8c2.2-2.1,2.9-5.1,3.6-8
		c10-26.7,20-53.4,30-80.1c-21.1-45-42.3-89.9-63.4-134.9c-1.7-3.9-3.9-7.8-7.5-10.4c-7.3-5.5-16.8-6.2-25.6-6.5
		c0-6.4,0-12.9,0-19.3c29.7,0,59.3,0,89,0c0,6.4,0,12.9,0,19.3c-3.9,0.2-8,0.2-11.5,2.1c-1.7,0.8-2.8,2.9-2.3,4.8
		c0.5,3.1,3,5.3,4.2,8c12.5,27,25.1,54,37.6,80.9c6.3-17.6,12.6-35.2,18.9-52.8c0.9-2.4,1.3-5.3,0.2-7.7c-0.8-1.9-2.7-3.1-4.6-4
		c-3.6-1.5-7.6-1.5-11.4-1.8c2-5.4,3.9-10.9,6-16.3c0.5-0.3,1.1-0.1,1.7-0.1c30.1,0,60.2,0,90.3,0c-2.1,5.5-4.1,10.9-6.2,16.4
		c-7.2,0.3-14.7,0.5-21.5,3.4c-3.1,1.3-6.1,3.3-7.9,6.2c-1.3,2.1-2.1,4.5-2.9,6.8c-12.6,34.3-25.3,68.5-37.7,102.9
		c6.9,15.6,14.1,31,21.1,46.5c25.5-60.2,51-120.5,76.6-180.7c1.7-3.6,4.5-6.9,4.7-11.1c0.2-3.3-2.2-6.1-5-7.4
		c-6-2.8-12.8-2.9-19.4-3.2C321,81.5,321,75.8,321,70z"/>
	<path id="path7" d="M367.4,394.4c8.1,8.3,16,16.7,24,25.1c0-7.8,0-15.6,0-23.5c1.4,0,2.8,0,4.1,0c0,11.2,0,22.3,0,33.5
		c-8.1-8.3-16-16.7-24-25.1c0,7.9,0,15.7,0,23.6c-1.4,0-2.8,0-4.1,0C367.4,416.8,367.4,405.6,367.4,394.4z"/>
	<path id="path9" d="M132.9,395.5c8.9-1.4,18.3,5.6,19.1,14.6c0.7,5.2-1.3,10.6-5.1,14.1c-6.2,6.1-17.4,6-23.5-0.3
		c-3.3-3.2-5.1-7.7-4.9-12.3C118.6,403.7,125.1,396.6,132.9,395.5 M132.9,399.6c-5.2,0.8-9.4,5.4-10.1,10.5c-1,5.8,2.6,12.1,8.3,14
		c4.9,1.9,10.9,0.1,14.1-4.1c4.1-5.1,3.4-13.4-1.6-17.7C140.7,399.8,136.6,398.9,132.9,399.6z"/>
	<path id="path11" d="M197,397.2c4.5-3.4,12-2,14.6,3.2c-1.1,0.6-2.2,1.2-3.3,1.9c-2-3.1-6.8-3.8-9.4-1.2c-1.1,0.8-1,2.3-0.9,3.6
		c0.3,1.6,2,2.3,3.3,3c3.3,1.7,7.2,2.7,9.5,5.8c2.6,3.5,2.1,8.6-0.7,11.8c-2.9,3.5-8.2,4.4-12.3,2.5c-3.1-1.5-5.1-4.8-5.7-8.1
		c1.4-0.3,2.8-0.6,4.2-1c0.1,3,2.5,6.1,5.7,6.2c4.3,0.5,7.8-5.2,5.3-8.8c-2.7-3.7-7.9-3.7-11-6.9C192.7,406.2,193,399.8,197,397.2z"
		/>
	<path id="path13" d="M345.4,395.5c5.8-0.7,11.8,2,15.4,6.6c5.1,6.4,4.3,16.7-1.8,22.3c-3.5,3.4-8.6,4.9-13.4,4.4
		c-4.8-0.3-9.2-3-12-6.8c-3-4.1-3.7-9.6-2.3-14.5C333.1,401.1,338.9,396.3,345.4,395.5 M344.6,399.7c-6.4,1.1-11,7.9-9.9,14.3
		c0.7,6.1,6.5,11.1,12.6,11c4.2,0.1,8.2-2.3,10.4-5.8c3.4-5,2.5-12.3-1.9-16.4C353.1,399.8,348.6,398.8,344.6,399.7z"/>
	<path id="path15" d="M104.5,396c1.3,0,2.6,0,4,0c0,9.5,0,18.9,0,28.4c3.3,0,6.6,0,9.9,0c0,1.2,0,2.4,0,3.6c-4.6,0-9.2,0-13.8,0
		C104.5,417.4,104.5,406.7,104.5,396z"/>
	<path id="path17" d="M155.2,396.1c1.4,0,2.8,0,4.2,0c0,6.3,0,12.6,0,18.9c0.1,2.8,0.4,5.8,2.4,8c3.1,3.1,9.2,2.6,11.4-1.3
		c1.1-1.9,1.4-4.1,1.4-6.2c0-6.4,0-12.9,0-19.3c1.4,0,2.8,0,4.2,0c0,6.6,0,13.2,0,19.7c0,3-0.5,6.1-2.4,8.5
		c-4.1,5.7-13.6,6-18.1,0.6c-2.1-2.2-3-5.4-3-8.4C155.2,409.7,155.2,402.9,155.2,396.1z"/>
	<path id="path19" d="M183.9,396c1.4,0,2.8,0,4.1,0c0,10.7,0,21.4,0,32c-1.4,0-2.8,0-4.1,0C183.9,417.4,183.9,406.7,183.9,396z"/>
	<path id="path21" d="M225.4,396.1c1.5,0,3,0,4.6,0c3.2,7.8,6.3,15.6,9.4,23.4c3.1-7.8,6.3-15.5,9.4-23.3c1.6-0.1,3.1,0,4.7-0.1
		c-4.7,11.3-9.3,22.7-14,34C234.7,418.7,230.1,407.4,225.4,396.1z"/>
	<path id="path23" d="M255.4,396c1.4,0,2.8,0,4.1,0c0,6.2,0,12.4,0,18.6c0.1,2.9,0.3,6.3,2.6,8.5c2.6,2.2,6.7,2.4,9.5,0.4
		c1.6-1.1,2.5-3.1,2.9-5c0.6-3.3,0.4-6.6,0.4-9.9c0-4.2,0-8.4,0-12.6c1.3,0,2.7,0,4,0c0.1,5.8,0,11.7,0,17.5c0.1,3.6,0,7.5-2.2,10.6
		c-3.9,5.6-12.7,6.2-17.6,1.6c-2.4-2.3-3.7-5.6-3.7-8.9C255.4,410,255.4,403,255.4,396z"/>
	<path id="path25" d="M284.1,396.1c1.4,0,2.9,0,4.3,0c0,10.7,0,21.4,0,32c-1.4,0-2.9,0-4.3,0C284.1,417.4,284.1,406.7,284.1,396.1z"
		/>
	<path id="path27" d="M291,396.1c12.9,0,25.8,0,38.8,0c0,1.3,0,2.6,0,3.8c-2.5,0-5,0-7.4,0c0,9.4,0,18.8,0,28.2c-1.4,0-2.9,0-4.3,0
		c0-9.4,0-18.8,0-28.2c-5.1,0-10.1,0-15.2,0c0,9.4,0,18.8,0,28.2c-1.3,0-2.6,0-4,0c0-9.4,0-18.8,0-28.2c-2.6,0-5.2,0-7.8,0
		C291,398.6,291,397.3,291,396.1z"/>
</g>
</svg>
